<svg width="360" height="111" viewBox="0 0 360 111" fill="none" xmlns="http://www.w3.org/2000/svg">
<path fill-rule="evenodd" clip-rule="evenodd" d="M284.633 66.2899C286.158 66.2899 287.512 66.443 288.693 66.7494C289.914 67.0559 291.363 67.573 293.041 68.3009L293.383 66.9219H299.56L298.302 73.5881V95.8858C298.302 100.713 297.044 104.429 294.527 107.035C292.049 109.678 288.522 111 283.947 111C281.468 111 279.314 110.713 277.484 110.138C275.692 109.564 273.938 108.625 272.222 107.322V101.288C274.052 102.744 275.845 103.798 277.599 104.449C279.391 105.1 281.412 105.426 283.661 105.426C286.559 105.426 288.694 104.621 290.067 103.012C291.439 101.441 292.125 99.1997 292.125 96.288V94.4494C290.982 95.1774 289.742 95.7134 288.408 96.0583C287.111 96.4031 285.663 96.5756 284.061 96.5756C279.905 96.5756 276.683 95.2538 274.395 92.6103C272.146 89.9668 271.021 86.3079 271.021 81.6339C271.021 76.8066 272.203 73.0517 274.567 70.3698C276.931 67.6497 280.286 66.2899 284.633 66.2899ZM285.262 71.6343C280.153 71.6344 277.599 74.9676 277.599 81.6339C277.599 84.7371 278.113 87.0932 279.143 88.7023C280.21 90.273 281.888 91.0587 284.175 91.0588C285.624 91.0588 286.978 90.8672 288.236 90.4841C289.494 90.0627 290.791 89.4305 292.125 88.5877V72.5539C290.257 71.9409 287.969 71.6343 285.262 71.6343Z" fill="#FBFAFE"/>
<path d="M93.9214 69.9513L81.023 101.767L68.1247 69.9513L81.023 53.5884L93.9214 69.9513Z" fill="#FBFAFE"/>
<path d="M237.834 66.2899C241.189 66.2899 244.258 67.1516 247.042 68.8756V74.8525C245.517 73.7032 244.049 72.8795 242.638 72.3814C241.265 71.8834 239.778 71.6343 238.177 71.6343C236.347 71.6343 234.917 71.9214 233.887 72.496C232.858 73.0707 232.343 73.895 232.343 74.9677C232.343 76.0403 232.82 76.8446 233.773 77.3809C234.726 77.879 236.27 78.4157 238.405 78.9903C240.541 79.565 242.276 80.1396 243.61 80.7143C244.945 81.2507 246.088 82.1319 247.042 83.3579C248.033 84.5839 248.529 86.2122 248.529 88.2428C248.529 90.0817 248.014 91.7101 246.985 93.1277C245.993 94.5452 244.582 95.6559 242.752 96.4605C240.96 97.265 238.92 97.6677 236.633 97.6677C234.764 97.6677 232.896 97.399 231.028 96.8627C229.198 96.288 227.482 95.4838 225.881 94.4494V88.3001C227.673 89.6792 229.388 90.6945 231.028 91.3458C232.705 91.9971 234.459 92.3227 236.29 92.3227C238.234 92.3227 239.759 91.9781 240.865 91.2885C241.97 90.5989 242.523 89.6602 242.523 88.4725C242.523 87.2465 242.009 86.3464 240.979 85.7717C239.988 85.197 238.406 84.6224 236.232 84.0477C234.135 83.5113 232.419 82.9557 231.085 82.381C229.789 81.8063 228.664 80.944 227.711 79.7947C226.758 78.6454 226.281 77.0935 226.281 75.1396C226.281 72.4579 227.33 70.3122 229.427 68.7032C231.562 67.0942 234.364 66.29 237.834 66.2899Z" fill="#FBFAFE"/>
<path d="M352.336 66.9792H359.942V71.9214H352.336V87.8979C352.336 89.3154 352.622 90.4267 353.194 91.2312C353.804 92.0358 354.7 92.4378 355.882 92.4378C357.102 92.4378 358.475 92.0737 360 91.3458V96.6329C358.399 97.3225 356.587 97.6676 354.567 97.6677C351.86 97.6677 349.782 96.8438 348.333 95.1966C346.884 93.5491 346.159 91.2116 346.159 88.1849V71.9214H341.069V66.9792H346.159V58.9339L352.336 56.2904V66.9792Z" fill="#FBFAFE"/>
<path d="M180.243 96.9778H174.066V56.9796H180.243V96.9778Z" fill="#FBFAFE"/>
<path d="M207.885 66.2899C210.783 66.29 213.051 67.1712 214.691 68.9335C216.33 70.6958 217.15 73.0905 217.15 76.117V96.9778H210.973V78.4157C210.973 76.1937 210.573 74.5462 209.772 73.4735C208.972 72.3624 207.732 71.8068 206.055 71.8068C204.568 71.8068 203.214 72.1134 201.994 72.7264C200.812 73.301 199.573 74.2204 198.277 75.4845V96.9778H192.1V73.6459L190.841 66.9792H196.732L197.647 71.0024C199.401 69.3167 201.041 68.1093 202.566 67.3814C204.091 66.6534 205.864 66.2899 207.885 66.2899Z" fill="#FBFAFE"/>
<path d="M262.598 96.9778H256.421V66.9792H262.598V96.9778Z" fill="#FBFAFE"/>
<path d="M314.952 70.4277C316.554 68.9719 318.079 67.9181 319.527 67.2668C320.976 66.6155 322.654 66.2899 324.561 66.2899C327.458 66.29 329.727 67.1712 331.366 68.9335C333.006 70.6958 333.826 73.0905 333.826 76.117V96.9778H327.649V78.4157C327.649 76.1937 327.248 74.5462 326.448 73.4735C325.647 72.3624 324.408 71.8068 322.73 71.8068C321.243 71.8068 319.889 72.1134 318.669 72.7264C317.487 73.301 316.248 74.2204 314.952 75.4845V96.9778H308.775V53.6468H314.952V70.4277Z" fill="#FBFAFE"/>
<path fill-rule="evenodd" clip-rule="evenodd" d="M125.157 0.00292299C145.691 0.264412 162.257 17.072 162.257 37.7668L162.254 38.2549C161.994 58.8877 145.267 75.5329 124.672 75.533L124.186 75.5301C103.813 75.2709 87.347 58.7254 87.0888 38.2549L87.0859 37.7668C87.0859 36.6497 87.1345 35.544 87.2291 34.4515C84.0916 32.9426 82.4799 32.4347 81.023 32.4347C79.5977 32.4347 78.0245 32.9215 75.0189 34.3557C75.119 35.4793 75.1708 36.617 75.1708 37.7668L75.1679 38.2549C74.9076 58.8877 58.1812 75.5329 37.5857 75.533L37.0999 75.5301C16.7276 75.2709 0.261096 58.7254 0.00290897 38.2549L0 37.7668C0 16.9089 16.8278 0 37.5857 0L38.0715 0.00292299C55.344 0.22288 69.8074 12.1507 73.9665 28.2513C76.4828 27.1382 78.7017 26.4484 81.023 26.4484C83.402 26.4484 85.6734 27.1727 88.2676 28.3349C92.4366 12.0409 107.155 0 124.672 0L125.157 0.00292299ZM37.5857 5.98629C20.1181 5.98629 5.95758 20.215 5.95758 37.7668C5.95771 55.3184 20.1182 69.5467 37.5857 69.5467C55.0531 69.5466 69.2131 55.3184 69.2132 37.7668C69.2132 20.2151 55.0531 5.98642 37.5857 5.98629ZM124.672 5.98629C107.204 5.98629 93.0435 20.215 93.0435 37.7668C93.0436 55.3184 107.204 69.5467 124.672 69.5467C142.139 69.5466 156.299 55.3184 156.299 37.7668C156.299 20.2151 142.139 5.98642 124.672 5.98629Z" fill="#FBFAFE"/>
<path d="M259.51 52.8997C260.654 52.8998 261.626 53.3019 262.427 54.1063C263.227 54.8726 263.627 55.8688 263.627 57.0948C263.627 58.2825 263.227 59.2787 262.427 60.0833C261.626 60.8494 260.654 61.2325 259.51 61.2326C258.366 61.2326 257.394 60.8495 256.593 60.0833C255.792 59.2787 255.392 58.2825 255.392 57.0948C255.392 55.8688 255.792 54.8726 256.593 54.1063C257.394 53.3018 258.366 52.8997 259.51 52.8997Z" fill="#FBFAFE"/>
<path d="M187.22 0.0192917C189.203 0.0192917 191.148 0.24881 193.054 0.708533C194.96 1.12994 196.733 1.76218 198.373 2.60497V8.75436C194.56 6.60894 190.861 5.53615 187.277 5.53615C184.952 5.53618 183.121 5.99575 181.787 6.91521C180.491 7.79639 179.843 9.02272 179.843 10.5935C179.843 11.7045 180.186 12.6433 180.872 13.4095C181.558 14.1758 182.416 14.8079 183.446 15.306C184.513 15.7657 185.962 16.3208 187.792 16.9721C190.347 17.8915 192.425 18.7728 194.026 19.6156C195.628 20.4585 197 21.6848 198.144 23.2939C199.326 24.8647 199.936 26.8951 199.974 29.3854C199.974 33.0634 198.735 35.9946 196.257 38.1784C193.817 40.3237 190.556 41.3966 186.477 41.3966C184.304 41.3966 182.016 41.1089 179.614 40.5343C177.212 39.9596 174.943 39.1744 172.808 38.1784V31.8565C177.65 34.5383 182.092 35.8791 186.134 35.8791C188.421 35.8791 190.232 35.362 191.567 34.3276C192.94 33.2932 193.626 31.8758 193.626 30.0752C193.626 28.7726 193.245 27.6999 192.482 26.857C191.758 25.9758 190.823 25.2862 189.68 24.7881C188.574 24.2518 187.049 23.6386 185.104 22.949C182.626 22.0678 180.624 21.2251 179.099 20.4206C177.574 19.6161 176.258 18.4858 175.153 17.0299C174.085 15.5358 173.551 13.6198 173.551 11.2827C173.551 7.79644 174.772 5.05724 177.212 3.06505C179.69 1.03452 183.026 0.0193055 187.22 0.0192917Z" fill="#FBFAFE"/>
<path d="M229.352 0.0192917C233.698 0.0193242 237.682 1.01555 241.305 3.00776L241.248 9.32902H241.019C239.608 8.25628 237.892 7.39406 235.871 6.74276C233.889 6.05321 231.773 5.70863 229.523 5.7086C225.177 5.7086 221.897 7.01141 219.686 9.61664C217.474 12.2219 216.369 15.9383 216.369 20.7655C216.369 25.4777 217.417 29.1557 219.514 31.7992C221.649 34.4045 224.795 35.7073 228.951 35.7073C230.553 35.7072 232.039 35.5157 233.412 35.1326C234.823 34.7112 236.024 34.0979 237.015 33.2935V25.8802H229.008V20.5931H243.192V36.569C240.523 38.2546 238.102 39.481 235.929 40.2472C233.755 41.0135 231.391 41.3966 228.837 41.3966C224.795 41.3966 221.344 40.5533 218.485 38.8676C215.625 37.1435 213.452 34.749 211.965 31.6841C210.516 28.5808 209.792 24.9604 209.792 20.8228C209.792 16.6085 210.554 12.9497 212.079 9.84639C213.604 6.70481 215.835 4.29071 218.77 2.60497C221.706 0.880921 225.234 0.0192917 229.352 0.0192917Z" fill="#FBFAFE"/>
<path fill-rule="evenodd" clip-rule="evenodd" d="M268.83 0.708533C279.201 0.708533 284.386 5.07653 284.386 13.8117C284.386 18.1792 283.109 21.5315 280.555 23.8686C278 26.2056 274.263 27.3738 269.345 27.3738H261.967V40.7067H255.79V0.708533H268.83ZM261.967 21.7997H268.944C272.033 21.7997 274.283 21.206 275.693 20.0184C277.104 18.8307 277.809 16.8382 277.809 14.0415C277.809 11.2831 277.104 9.32908 275.693 8.1797C274.321 6.99202 272.033 6.39843 268.83 6.39843H261.967V21.7997Z" fill="#FBFAFE"/>
</svg>
